<?xml version="1.0" encoding="UTF-8" standalone="no"?>
<!-- Created with Inkscape (http://www.inkscape.org/) -->

<svg
   xmlns:dc="http://purl.org/dc/elements/1.1/"
   xmlns:cc="http://creativecommons.org/ns#"
   xmlns:rdf="http://www.w3.org/1999/02/22-rdf-syntax-ns#"
   xmlns:svg="http://www.w3.org/2000/svg"
   xmlns="http://www.w3.org/2000/svg"
   version="1.1"
   width="125.84375"
   height="68.5625"
   id="svg3182">
  <defs
     id="defs3184" />
  <metadata
     id="metadata3187">
    <rdf:RDF>
      <cc:Work
         rdf:about="">
        <dc:format>image/svg+xml</dc:format>
        <dc:type
           rdf:resource="http://purl.org/dc/dcmitype/StillImage" />
        <dc:title></dc:title>
      </cc:Work>
    </rdf:RDF>
  </metadata>
  <g
     transform="translate(-214.17224,-148.88127)"
     id="layer1">
    <g
       transform="translate(-352.23401,120.60002)"
       id="g13526">
      <path
         d="m 679.99,63.08 c -1.3,0.013 0.51,-0.479 -2.79,-0.409 -1.5,0.032 -3.76,0.635 -5.65,1.267 -1.95,0.648 -5.31,1.928 -7.55,2.494 -4.6,1.161 -2.07,0.611 -8.93,1.696 -7.12,1.124 -8.72,1.27 -10.31,1.198 -1.51,-0.069 -5.26,0.394 -8.79,-0.078 -3.16,-0.423 -4.37,-0.106 -5.1,0.399 -0.73,0.505 -1.16,1.42 -1.12,2.387 0.05,0.966 0.55,1.83 1.32,2.252 0.72,0.434 1.82,1.108 3.64,1.72 4.65,1.56 11.48,2.633 19.07,2.633 7.59,0 14.43,-1.073 19.07,-2.633 1.94,-0.652 3.17,-1.375 3.93,-1.855 0.65,-0.404 1.09,-1.132 1.19,-1.961 0.21,-1.833 1.32,-3.346 2.87,-3.924 1.18,-0.36 1.92,-1.683 1.7,-3.04 -0.23,-1.357 -1.33,-2.228 -2.55,-2.146 z"
         id="path10252"
         style="color:#000000;fill:#ffffff" />
      <path
         d="m 629.77,31.37 c -8.95,0 -16.61,4.663 -20.37,11.361 -1.5,-0.838 -3.17,-1.352 -4.94,-1.352 -5.34,0 -9.79,4.299 -11.16,10.135 -2.35,-0.927 -5.06,-1.502 -7.97,-1.502 -8.74,0 -15.84,4.789 -15.84,10.685 0,5.323 5.81,9.701 13.37,10.51 -0.34,0.575 -0.61,1.149 -0.61,1.752 0,5.645 15.47,10.234 34.54,10.234 19.06,0 34.53,-4.589 34.53,-10.234 0,-0.38 -0.25,-0.732 -0.39,-1.101 0.84,0.207 1.68,0.425 2.59,0.425 5.1,0 9.23,-3.467 9.23,-7.732 0,-4.265 -4.13,-7.707 -9.23,-7.707 -0.62,0 -1.17,0.201 -1.76,0.3 0.51,-1.705 0.87,-3.454 0.87,-5.305 0,-11.29 -10.24,-20.469 -22.86,-20.469 z"
         id="path5040"
         style="color:#000000;fill:#ffffff;stroke:#6798e9;stroke-width:6.15399981;stroke-linecap:round;stroke-linejoin:round;stroke-miterlimit:0.5" />
      <path
         d="m 658.91,33.007 c -8.21,0 -15.24,4.673 -18.68,11.385 -1.38,-0.84 -2.91,-1.354 -4.54,-1.354 -4.9,0 -8.97,4.307 -10.24,10.155 -2.15,-0.929 -4.63,-1.504 -7.3,-1.504 -8.02,0 -14.53,4.799 -14.53,10.707 0,5.334 5.33,9.721 12.26,10.532 -0.31,0.576 -0.55,1.151 -0.55,1.755 0,5.657 14.19,10.256 31.67,10.256 17.48,0 31.67,-4.599 31.67,-10.256 0,-0.38 -0.23,-0.733 -0.35,-1.103 0.76,0.208 1.54,0.426 2.38,0.426 4.67,0 8.46,-3.474 8.46,-7.748 0,-4.274 -3.79,-7.723 -8.46,-7.723 -0.58,0 -1.08,0.201 -1.63,0.301 0.48,-1.71 0.8,-3.462 0.8,-5.317 0,-11.314 -9.38,-20.512 -20.96,-20.512 z"
         id="path5042"
         style="color:#000000;fill:#6798e9;stroke:#6798e9;stroke-width:6.15399981;stroke-linecap:round;stroke-linejoin:round;stroke-miterlimit:0.5" />
      <path
         d="m 625.66,67.907 c -4.57,0 -8.48,2.327 -10.4,5.671 -0.77,-0.418 -1.62,-0.674 -2.52,-0.674 -2.73,0 -5,2.146 -5.71,5.059 -1.19,-0.463 -2.58,-0.75 -4.06,-0.75 -4.47,0 -8.09,2.391 -8.09,5.335 0,2.657 2.96,4.842 6.82,5.246 -0.17,0.287 -0.31,0.574 -0.31,0.875 0,2.818 7.91,5.109 17.64,5.109 9.74,0 17.64,-2.291 17.64,-5.109 0,-0.19 -0.12,-0.366 -0.19,-0.55 0.42,0.104 0.85,0.213 1.32,0.213 2.6,0 4.71,-1.731 4.71,-3.861 0,-2.129 -2.11,-3.847 -4.71,-3.847 -0.32,0 -0.6,0.1 -0.9,0.15 0.26,-0.852 0.44,-1.725 0.44,-2.649 0,-5.636 -5.23,-10.218 -11.68,-10.218 z"
         id="path6506"
         style="color:#000000;fill:#386195;stroke:#386195;stroke-width:6.15399981;stroke-linecap:round;stroke-linejoin:round;stroke-miterlimit:0.5" />
    </g>
  </g>
</svg>
