<?xml version="1.0" encoding="UTF-8" standalone="no"?>
<!-- Created with Inkscape (http://www.inkscape.org/) -->

<svg
   xmlns:dc="http://purl.org/dc/elements/1.1/"
   xmlns:cc="http://creativecommons.org/ns#"
   xmlns:rdf="http://www.w3.org/1999/02/22-rdf-syntax-ns#"
   xmlns:svg="http://www.w3.org/2000/svg"
   xmlns="http://www.w3.org/2000/svg"
   version="1.1"
   width="125.8261"
   height="95.309174"
   id="svg3182">
  <defs
     id="defs3184" />
  <metadata
     id="metadata3187">
    <rdf:RDF>
      <cc:Work
         rdf:about="">
        <dc:format>image/svg+xml</dc:format>
        <dc:type
           rdf:resource="http://purl.org/dc/dcmitype/StillImage" />
        <dc:title></dc:title>
      </cc:Work>
    </rdf:RDF>
  </metadata>
  <g
     transform="translate(-201.44103,-130.34328)"
     id="layer1">
    <g
       transform="translate(-364.96541,-16.504153)"
       id="g13563">
      <path
         d="m 679.99,181.63 c -1.3,0.01 0.51,-0.48 -2.79,-0.41 -1.5,0.03 -3.76,0.64 -5.65,1.27 -1.95,0.65 -5.31,1.93 -7.55,2.49 -4.6,1.16 -2.07,0.61 -8.93,1.7 -7.12,1.12 -8.72,1.27 -10.31,1.2 -1.51,-0.07 -5.26,0.39 -8.79,-0.08 -3.16,-0.43 -4.37,-0.11 -5.1,0.4 -0.73,0.5 -1.16,1.42 -1.12,2.38 0.05,0.97 0.55,1.83 1.32,2.26 0.72,0.43 1.82,1.1 3.64,1.72 4.65,1.56 11.48,2.63 19.07,2.63 7.59,0 14.43,-1.07 19.07,-2.63 1.94,-0.66 3.17,-1.38 3.93,-1.86 0.65,-0.4 1.09,-1.13 1.19,-1.96 0.21,-1.83 1.32,-3.35 2.87,-3.92 1.18,-0.36 1.92,-1.69 1.7,-3.04 -0.23,-1.36 -1.33,-2.23 -2.55,-2.15 z"
         id="path11037"
         style="color:#000000;fill:#ffffff" />
      <g
         transform="matrix(0.91614,0,0,0.91614,324.66,36.882)"
         id="g11039"
         style="stroke-width:6.71729994;stroke-linecap:round;stroke-linejoin:round;stroke-miterlimit:0.5">
        <path
           d="m 333.03,123.39 c -9.77,0 -18.13,5.08 -22.23,12.4 -1.64,-0.92 -3.47,-1.48 -5.39,-1.48 -5.84,0 -10.69,4.69 -12.19,11.06 -2.56,-1.01 -5.52,-1.64 -8.7,-1.64 -9.54,0 -17.28,5.23 -17.28,11.67 0,5.81 6.34,10.59 14.59,11.47 -0.37,0.63 -0.66,1.25 -0.66,1.91 0,6.16 16.88,11.17 37.69,11.17 20.81,0 37.7,-5.01 37.7,-11.17 0,-0.41 -0.28,-0.8 -0.43,-1.2 0.91,0.23 1.83,0.46 2.83,0.46 5.57,0 10.07,-3.78 10.07,-8.44 0,-4.65 -4.5,-8.41 -10.07,-8.41 -0.68,0 -1.28,0.22 -1.93,0.33 0.56,-1.86 0.95,-3.77 0.95,-5.79 0,-12.33 -11.17,-22.34 -24.95,-22.34 z"
           id="path11041"
           style="color:#000000;fill:#ffffff;stroke:#6798e9" />
        <path
           d="m 364.84,125.17 c -8.96,0 -16.63,5.1 -20.39,12.43 -1.51,-0.92 -3.18,-1.48 -4.95,-1.48 -5.35,0 -9.8,4.7 -11.18,11.09 -2.35,-1.02 -5.06,-1.65 -7.97,-1.65 -8.75,0 -15.86,5.24 -15.86,11.69 0,5.82 5.82,10.61 13.38,11.5 -0.34,0.63 -0.6,1.25 -0.6,1.91 0,6.18 15.49,11.2 34.57,11.2 19.08,0 34.57,-5.02 34.57,-11.2 0,-0.41 -0.25,-0.8 -0.38,-1.2 0.83,0.23 1.67,0.46 2.59,0.46 5.1,0 9.24,-3.79 9.24,-8.45 0,-4.67 -4.14,-8.43 -9.24,-8.43 -0.63,0 -1.18,0.22 -1.77,0.32 0.52,-1.86 0.87,-3.77 0.87,-5.8 0,-12.35 -10.24,-22.39 -22.88,-22.39 z"
           id="path11043"
           style="color:#000000;fill:#6798e9;stroke:#6798e9" />
        <path
           d="m 328.55,163.27 c -4.99,0 -9.26,2.54 -11.35,6.19 -0.84,-0.46 -1.77,-0.74 -2.76,-0.74 -2.98,0 -5.46,2.34 -6.22,5.52 -1.31,-0.5 -2.82,-0.82 -4.45,-0.82 -4.87,0 -8.83,2.61 -8.83,5.83 0,2.9 3.25,5.28 7.46,5.72 -0.19,0.32 -0.34,0.63 -0.34,0.96 0,3.08 8.63,5.58 19.25,5.58 10.63,0 19.26,-2.5 19.26,-5.58 0,-0.21 -0.14,-0.4 -0.22,-0.6 0.47,0.11 0.94,0.23 1.45,0.23 2.84,0 5.14,-1.89 5.14,-4.21 0,-2.33 -2.3,-4.2 -5.14,-4.2 -0.35,0 -0.66,0.11 -0.99,0.16 0.29,-0.93 0.49,-1.88 0.49,-2.89 0,-6.15 -5.71,-11.15 -12.75,-11.15 z"
           id="path11045"
           style="color:#000000;fill:#386195;stroke:#386195" />
      </g>
      <path
         d="m 633.67,165.36 -20.04,12.71 19.8,4.37 -18.3,13.64 -7.39,-2.3 5.24,13.15 20.82,-5.74 -8.79,-2.4 23.87,-19.6 -21.82,-3.55 21.08,-13.24 -12.02,-1.99 13.09,-8.41 -4.81,-0.13 -20.32,11.55 9.59,1.94 z"
         id="path11047"
         style="color:#000000;fill:#f5ff12;stroke:#f5ff12;stroke-width:0.5;stroke-linecap:round;stroke-miterlimit:0.5" />
      <g
         id="g11065"
         style="fill:#6798e9;stroke:#6798e9;stroke-width:4;stroke-miterlimit:3.20000005">
        <path
           d="m 596,230.29 c -8.25,7.27 1.43,13.47 5.12,3.48 l 2.83,-9.26 -7.95,5.78 z"
           id="path11049"
           style="color:#000000" />
        <path
           d="m 625.05,231.49 c -8.25,7.27 1.43,13.47 5.12,3.48 l 2.83,-9.26 -7.95,5.78 z"
           id="path11051"
           style="color:#000000" />
        <path
           d="m 618.28,216.14 c -8.25,7.27 1.44,13.47 5.12,3.49 l 2.83,-9.26 -7.95,5.77 z"
           id="path11053"
           style="color:#000000" />
        <path
           d="m 596,230.29 c -8.25,7.27 1.43,13.47 5.12,3.48 l 2.83,-9.26 -7.95,5.78 z"
           id="path11055"
           style="color:#000000" />
        <path
           d="m 625.05,231.49 c -8.25,7.27 1.43,13.47 5.12,3.48 l 2.83,-9.26 -7.95,5.78 z"
           id="path11057"
           style="color:#000000" />
        <path
           d="m 618.28,216.14 c -8.25,7.27 1.44,13.47 5.12,3.49 l 2.83,-9.26 -7.95,5.77 z"
           id="path11059"
           style="color:#000000" />
      </g>
    </g>
  </g>
</svg>
