<?xml version="1.0" encoding="UTF-8" standalone="no"?>
<!-- Created with Inkscape (http://www.inkscape.org/) -->

<svg
   xmlns:dc="http://purl.org/dc/elements/1.1/"
   xmlns:cc="http://creativecommons.org/ns#"
   xmlns:rdf="http://www.w3.org/1999/02/22-rdf-syntax-ns#"
   xmlns:svg="http://www.w3.org/2000/svg"
   xmlns="http://www.w3.org/2000/svg"
   version="1.1"
   width="107.96875"
   height="89.300186"
   id="svg3182">
  <defs
     id="defs3184" />
  <metadata
     id="metadata3187">
    <rdf:RDF>
      <cc:Work
         rdf:about="">
        <dc:format>image/svg+xml</dc:format>
        <dc:type
           rdf:resource="http://purl.org/dc/dcmitype/StillImage" />
        <dc:title></dc:title>
      </cc:Work>
    </rdf:RDF>
  </metadata>
  <g
     transform="translate(-205.43004,-133.98436)"
     id="layer1">
    <g
       transform="translate(35.523786,-113.73439)"
       id="g13587"
       style="stroke-linecap:round;stroke-miterlimit:0.5">
      <path
         d="m 248.3,304.86 c 8.54,-2.05 14.01,-5.19 14.01,-8.7 0,-0.41 -0.26,-0.78 -0.41,-1.19 0.91,0.23 1.81,0.47 2.81,0.47 5.57,0 10.1,-3.78 10.1,-8.43 0,-4.66 -4.53,-8.44 -10.1,-8.44 -0.68,0 -1.26,0.23 -1.9,0.34 0.56,-1.86 0.93,-3.76 0.93,-5.78 0,-12.32 -11.15,-22.34 -24.93,-22.34 -9.77,0 -18.15,5.06 -22.25,12.37 -1.64,-0.91 -3.45,-1.47 -5.38,-1.47 -5.83,0 -10.69,4.7 -12.19,11.07 -2.56,-1.02 -5.53,-1.63 -8.71,-1.63 -9.55,0 -17.29,5.22 -17.29,11.66 0,5.81 6.35,10.58 14.6,11.47 -0.37,0.62 -0.66,1.24 -0.66,1.9 0,2.86 3.64,5.48 9.62,7.46 m 51.63,1.27 c 0.04,-0.01 -7.89,0.98 -7.86,0.97 m -43.77,-2.24 c 0.05,0.01 4.74,1.03 4.78,1.04"
         id="path11896"
         style="color:#000000;fill:none;stroke:#6798e9;stroke-width:6.15399981;stroke-linejoin:round" />
      <path
         d="m 138.99,349.22 c 0.66,-2.23 16.6,3.45 17.88,1.51 1.28,-1.94 -10.4,-14.19 -8.57,-15.6 1.84,-1.43 11.4,12.54 13.58,11.72 2.17,-0.81 -0.09,-17.59 2.23,-17.66 2.33,-0.07 1.85,16.85 4.1,17.47 2.23,0.62 10.27,-14.28 12.18,-12.98 1.93,1.32 -8.41,14.72 -6.95,16.55 1.44,1.81 16.7,-5.52 17.48,-3.34 0.79,2.19 -15.45,6.96 -15.35,9.29 0.11,2.32 16.76,5.36 16.11,7.58 -0.65,2.24 -16.6,-3.45 -17.88,-1.5 -1.27,1.93 10.41,14.18 8.58,15.6 -1.85,1.42 -11.4,-12.55 -13.59,-11.73 -2.16,0.82 0.09,17.59 -2.22,17.66 -2.34,0.07 -1.85,-16.85 -4.1,-17.47 -2.23,-0.61 -10.27,14.29 -12.19,12.98 -1.92,-1.31 8.41,-14.72 6.96,-16.54 -1.45,-1.81 -16.71,5.52 -17.49,3.34 -0.79,-2.2 15.46,-6.97 15.35,-9.3 -0.1,-2.31 -16.76,-5.35 -16.11,-7.58 z"
         transform="matrix(0.47721,0,0,0.47721,141.71,126.65)"
         id="path11902"
         style="color:#000000;fill:#9e9e9e;stroke:#a6a6a6;stroke-width:0.28064001" />
      <path
         d="m 138.99,349.22 c 0.66,-2.23 16.6,3.45 17.88,1.51 1.28,-1.94 -10.4,-14.19 -8.57,-15.6 1.84,-1.43 11.4,12.54 13.58,11.72 2.17,-0.81 -0.09,-17.59 2.23,-17.66 2.33,-0.07 1.85,16.85 4.1,17.47 2.23,0.62 10.27,-14.28 12.18,-12.98 1.93,1.32 -8.41,14.72 -6.95,16.55 1.44,1.81 16.7,-5.52 17.48,-3.34 0.79,2.19 -15.45,6.96 -15.35,9.29 0.11,2.32 16.76,5.36 16.11,7.58 -0.65,2.24 -16.6,-3.45 -17.88,-1.5 -1.27,1.93 10.41,14.18 8.58,15.6 -1.85,1.42 -11.4,-12.55 -13.59,-11.73 -2.16,0.82 0.09,17.59 -2.22,17.66 -2.34,0.07 -1.85,-16.85 -4.1,-17.47 -2.23,-0.61 -10.27,14.29 -12.19,12.98 -1.92,-1.31 8.41,-14.72 6.96,-16.54 -1.45,-1.81 -16.71,5.52 -17.49,3.34 -0.79,-2.2 15.46,-6.97 15.35,-9.3 -0.1,-2.31 -16.76,-5.35 -16.11,-7.58 z"
         transform="matrix(0.47721,0,0,0.47721,150.96,153.8)"
         id="path11908"
         style="color:#000000;fill:#9e9e9e;stroke:#a6a6a6;stroke-width:0.28064001" />
      <path
         d="m 138.99,349.22 c 0.66,-2.23 16.6,3.45 17.88,1.51 1.28,-1.94 -10.4,-14.19 -8.57,-15.6 1.84,-1.43 11.4,12.54 13.58,11.72 2.17,-0.81 -0.09,-17.59 2.23,-17.66 2.33,-0.07 1.85,16.85 4.1,17.47 2.23,0.62 10.27,-14.28 12.18,-12.98 1.93,1.32 -8.41,14.72 -6.95,16.55 1.44,1.81 16.7,-5.52 17.48,-3.34 0.79,2.19 -15.45,6.96 -15.35,9.29 0.11,2.32 16.76,5.36 16.11,7.58 -0.65,2.24 -16.6,-3.45 -17.88,-1.5 -1.27,1.93 10.41,14.18 8.58,15.6 -1.85,1.42 -11.4,-12.55 -13.59,-11.73 -2.16,0.82 0.09,17.59 -2.22,17.66 -2.34,0.07 -1.85,-16.85 -4.1,-17.47 -2.23,-0.61 -10.27,14.29 -12.19,12.98 -1.92,-1.31 8.41,-14.72 6.96,-16.54 -1.45,-1.81 -16.71,5.52 -17.49,3.34 -0.79,-2.2 15.46,-6.97 15.35,-9.3 -0.1,-2.31 -16.76,-5.35 -16.11,-7.58 z"
         transform="matrix(0.47721,0,0,0.47721,118.97,153.8)"
         id="path11910"
         style="color:#000000;fill:#9e9e9e;stroke:#a6a6a6;stroke-width:0.28064001" />
    </g>
  </g>
</svg>
