<?xml version="1.0" encoding="UTF-8" standalone="no"?>
<!-- Created with Inkscape (http://www.inkscape.org/) -->

<svg
   xmlns:dc="http://purl.org/dc/elements/1.1/"
   xmlns:cc="http://creativecommons.org/ns#"
   xmlns:rdf="http://www.w3.org/1999/02/22-rdf-syntax-ns#"
   xmlns:svg="http://www.w3.org/2000/svg"
   xmlns="http://www.w3.org/2000/svg"
   version="1.1"
   width="107.9375"
   height="87.428818"
   id="svg3182">
  <defs
     id="defs3184" />
  <metadata
     id="metadata3187">
    <rdf:RDF>
      <cc:Work
         rdf:about="">
        <dc:format>image/svg+xml</dc:format>
        <dc:type
           rdf:resource="http://purl.org/dc/dcmitype/StillImage" />
        <dc:title></dc:title>
      </cc:Work>
    </rdf:RDF>
  </metadata>
  <g
     transform="translate(-206.60887,-134.13958)"
     id="layer1">
    <g
       transform="translate(-335.57863,-125.73542)"
       id="g3608">
      <path
         d="m 611.053,262.949 c -9.76,0 -18.13,5.09 -22.23,12.4 -1.64,-0.91 -3.46,-1.47 -5.39,-1.47 -5.83,0 -10.69,4.69 -12.19,11.06 -2.56,-1.01 -5.51,-1.64 -8.69,-1.64 -9.54,0 -17.29,5.23 -17.29,11.66 0,5.81 6.34,10.59 14.59,11.47 -0.37,0.63 -0.66,1.26 -0.66,1.92 0,6.16 16.89,11.17 37.69,11.17 20.81,0 37.7,-5.01 37.7,-11.17 0,-0.42 -0.28,-0.8 -0.42,-1.21 0.91,0.23 1.83,0.47 2.82,0.47 5.57,0 10.08,-3.79 10.08,-8.44 0,-4.66 -4.51,-8.41 -10.08,-8.41 -0.68,0 -1.28,0.22 -1.93,0.32 0.57,-1.86 0.96,-3.77 0.96,-5.79 0,-12.32 -11.18,-22.34 -24.96,-22.34 z"
         id="path13431"
         style="color:#000000;fill:#ffffff;stroke:#6798e9;stroke-width:6.15399981;stroke-linecap:round;stroke-linejoin:round;stroke-miterlimit:0.5" />
      <path
         d="m 598.533,331.839 c 1.71,-1.55 3.68,-3.46 6.8,-3.26 3.27,-0.01 4.84,0.34 8.04,1.33 3.19,1 6.44,2.66 8.88,2.06 2.55,-0.62 5.35,-2.95 6.47,-4.38 1.64,0.5 -0.45,2.59 -0.93,3.47 -1.53,2.3 -2.93,3.85 -5.16,4.5 -2.44,0.83 -5.34,0.48 -7.76,-0.03 -2.74,-0.65 -5.4,-1.78 -8.13,-2.51 -3.02,-0.65 -7.37,0.88 -8.55,1.43 -1.22,0.58 -3.62,3.17 -3.17,1.08 1.17,-1.1 1.78,-2.12 3.51,-3.69 z"
         id="path13472"
         style="fill:#9e9e9e;stroke:#9e9e9e;stroke-width:1px" />
      <path
         d="m 563.153,330.679 c 1.7,-1.55 3.68,-3.46 6.79,-3.27 3.27,0 4.84,0.34 8.04,1.34 3.2,0.99 6.45,2.65 8.89,2.06 2.54,-0.62 5.34,-2.96 6.47,-4.39 1.64,0.5 -0.45,2.6 -0.94,3.48 -1.53,2.29 -2.93,3.85 -5.16,4.5 -2.44,0.83 -5.33,0.48 -7.76,-0.03 -2.73,-0.65 -5.4,-1.78 -8.12,-2.51 -3.03,-0.65 -7.38,0.88 -8.56,1.43 -1.22,0.57 -3.61,3.17 -3.16,1.08 1.16,-1.1 1.77,-2.12 3.51,-3.69 z"
         id="path13501"
         style="fill:#9e9e9e;stroke:#9e9e9e;stroke-width:1px" />
      <path
         d="m 578.013,342.319 c 1.71,-1.55 3.68,-3.46 6.8,-3.27 3.27,0 4.84,0.34 8.03,1.34 3.2,0.99 6.45,2.65 8.89,2.06 2.54,-0.63 5.35,-2.96 6.47,-4.39 1.64,0.5 -0.45,2.59 -0.94,3.48 -1.53,2.29 -2.92,3.85 -5.16,4.5 -2.44,0.83 -5.33,0.47 -7.75,-0.03 -2.74,-0.65 -5.41,-1.78 -8.13,-2.52 -3.02,-0.64 -7.38,0.89 -8.55,1.44 -1.22,0.57 -3.62,3.16 -3.17,1.08 1.16,-1.1 1.78,-2.12 3.51,-3.69 z"
         id="path13505"
         style="fill:#9e9e9e;stroke:#9e9e9e;stroke-width:1px" />
    </g>
  </g>
</svg>
